{
	"asset":{
		"generator":"Khronos glTF Blender I/O v5.2.39",
		"version":"2.0"
	},
	"scene":0,
	"scenes":[
		{
			"name":"Scene",
			"nodes":[
				27,
				31,
				35,
				39,
				43,
				47,
				51,
				56,
				61,
				66,
				71,
				76,
				81,
				86,
				91,
				96,
				101,
				106,
				111,
				116,
				120,
				125,
				130
			]
		}
	],
	"nodes":[
		{
			"mesh":0,
			"name":"Bridge_Material_0",
			"translation":[
				-1.0426132678985596,
				3.6759281158447266,
				0.0399867445230484
			]
		},
		{
			"children":[
				0
			],
			"name":"Bridge",
			"rotation":[
				-0.70710688829422,
				0,
				0,
				0.7071066498756409
			],
			"scale":[
				100,
				219.80337524414062,
				35.124149322509766
			],
			"translation":[
				333.3080139160156,
				2.980232011395856e-06,
				-488.4889831542969
			]
		},
		{
			"name":"Bush",
			"rotation":[
				-0.03004794754087925,
				-0.7064681053161621,
				-0.7064679861068726,
				0.0300479456782341
			],
			"scale":[
				61.08963394165039,
				61.08963394165039,
				61.089637756347656
			],
			"translation":[
				614.544921875,
				96.62165832519531,
				-441.80157470703125
			]
		},
		{
			"name":"Object_38"
		},
		{
			"children":[
				3
			],
			"name":"Camera.001",
			"rotation":[
				0.07063329964876175,
				-0.4407559931278229,
				-0.1415799856185913,
				0.8835723996162415
			],
			"scale":[
				100.00003814697266,
				100.0000228881836,
				100.00006103515625
			],
			"translation":[
				-2093.06640625,
				1889.9222412109375,
				1222.1212158203125
			]
		},
		{
			"name":"Gate",
			"rotation":[
				-0.70710688829422,
				0,
				0,
				0.7071066498756409
			],
			"scale":[
				100,
				100.00001525878906,
				100.00001525878906
			],
			"translation":[
				-1.52587890625e-05,
				0,
				0
			]
		},
		{
			"mesh":1,
			"name":"Gate_wall_Material_0",
			"translation":[
				2.2828128337860107,
				9.818012237548828,
				0.05899297818541527
			]
		},
		{
			"children":[
				6
			],
			"name":"Gate_wall",
			"rotation":[
				-0.70710688829422,
				0,
				0,
				0.7071066498756409
			],
			"scale":[
				100,
				100.00001525878906,
				100.00001525878906
			],
			"translation":[
				-1.52587890625e-05,
				0,
				0
			]
		},
		{
			"name":"Ground",
			"rotation":[
				-0.7071069478988647,
				0,
				0,
				0.7071066498756409
			],
			"scale":[
				377.5265808105469,
				207.2196502685547,
				207.2196502685547
			],
			"translation":[
				-1.52587890625e-05,
				0,
				0
			]
		},
		{
			"name":"Ground.2",
			"rotation":[
				-0.5,
				0.5000000596046448,
				0.5000000596046448,
				0.5
			],
			"scale":[
				224.13890075683594,
				123.02703857421875,
				123.02703094482422
			],
			"translation":[
				-1.52587890625e-05,
				0,
				-453.6242980957031
			]
		},
		{
			"name":"Palace.tower",
			"rotation":[
				-0.70710688829422,
				0,
				0,
				0.7071066498756409
			],
			"scale":[
				152.5216522216797,
				152.5216522216797,
				152.5216522216797
			],
			"translation":[
				909.020263671875,
				0,
				499.8338623046875
			]
		},
		{
			"name":"Palace.tower1",
			"rotation":[
				-0.7034434676170349,
				0.006069306284189224,
				-0.006069297436624765,
				0.7106993794441223
			],
			"scale":[
				135.5018310546875,
				135.50181579589844,
				135.5018310546875
			],
			"translation":[
				-578.372314453125,
				20.18360710144043,
				499.93743896484375
			]
		},
		{
			"name":"Palace.tower2",
			"rotation":[
				-0.70710688829422,
				0,
				0,
				0.7071066498756409
			],
			"scale":[
				135.5018310546875,
				135.50184631347656,
				135.50184631347656
			],
			"translation":[
				-1.52587890625e-05,
				0,
				499.8338623046875
			]
		},
		{
			"mesh":2,
			"name":"Plane_Material_0",
			"scale":[
				1,
				1,
				1.0199999809265137
			],
			"translation":[
				0,
				-0.10146555304527283,
				0
			]
		},
		{
			"children":[
				13
			],
			"name":"Plane",
			"rotation":[
				-0.7071069478988647,
				0,
				0,
				0.7071066498756409
			],
			"scale":[
				1540.1064453125,
				1540.106689453125,
				1540.106689453125
			],
			"translation":[
				408.1624755859375,
				-17.486183166503906,
				264.1773681640625
			]
		},
		{
			"name":"Rock_Corridor.001",
			"rotation":[
				-0.70710688829422,
				0,
				0,
				0.7071066498756409
			],
			"scale":[
				100,
				100.00001525878906,
				100.00001525878906
			],
			"translation":[
				4.92584228515625,
				9.536742436466739e-05,
				-464.5708312988281
			]
		},
		{
			"name":"Tower.short",
			"rotation":[
				-0.70710688829422,
				0,
				0,
				0.7071066498756409
			],
			"scale":[
				111.4500503540039,
				111.45006561279297,
				165.39401245117188
			],
			"translation":[
				1357.9818115234375,
				0,
				499.8338623046875
			]
		},
		{
			"name":"Vert.001",
			"rotation":[
				-0.13051962852478027,
				0.6949566006660461,
				0.6949565410614014,
				0.13051962852478027
			],
			"scale":[
				182.75181579589844,
				182.7518310546875,
				182.75180053710938
			],
			"translation":[
				898.826171875,
				-25.158096313476562,
				-909.4680786132812
			]
		},
		{
			"name":"Vert.002",
			"rotation":[
				-0.39575493335723877,
				-0.5859846472740173,
				-0.5859846472740173,
				0.39575502276420593
			],
			"scale":[
				182.7518310546875,
				182.75181579589844,
				182.75181579589844
			],
			"translation":[
				849.5340576171875,
				-25.661090850830078,
				-773.5016479492188
			]
		},
		{
			"name":"Vert.003",
			"rotation":[
				-0.39575493335723877,
				-0.5859846472740173,
				-0.5859846472740173,
				0.39575502276420593
			],
			"scale":[
				182.7518310546875,
				182.75181579589844,
				182.75181579589844
			],
			"translation":[
				810.045166015625,
				-31.776992797851562,
				-446.9623718261719
			]
		},
		{
			"name":"Vert.004",
			"rotation":[
				-0.6998751759529114,
				-0.10086998343467712,
				-0.10086998343467712,
				0.6998751759529114
			],
			"scale":[
				182.7518310546875,
				182.7518310546875,
				182.75180053710938
			],
			"translation":[
				813.2861328125,
				-28.21626853942871,
				-582.6414184570312
			]
		},
		{
			"name":"Wall.long",
			"rotation":[
				-0.70710688829422,
				0,
				0,
				0.7071066498756409
			],
			"scale":[
				100,
				100.00001525878906,
				100.00001525878906
			],
			"translation":[
				1615.4443359375,
				0,
				0
			]
		},
		{
			"name":"Wall.short",
			"rotation":[
				-0.70710688829422,
				0,
				0,
				0.7071066498756409
			],
			"scale":[
				100,
				100.00001525878906,
				100.00001525878906
			],
			"translation":[
				729.54638671875,
				0,
				0
			]
		},
		{
			"name":"Wall.tower",
			"rotation":[
				-0.70710688829422,
				0,
				0,
				0.7071066498756409
			],
			"scale":[
				100,
				82.0002670288086,
				100.00001525878906
			],
			"translation":[
				442.14776611328125,
				0,
				499.8338623046875
			]
		},
		{
			"name":"Wall_ArcheryTower",
			"rotation":[
				-0.70710688829422,
				0,
				0,
				0.7071066498756409
			],
			"scale":[
				100,
				100.00001525878906,
				100.00001525878906
			],
			"translation":[
				-778.6173095703125,
				0,
				0
			]
		},
		{
			"children":[
				1,
				2,
				4,
				5,
				7,
				8,
				9,
				10,
				11,
				12,
				14,
				15,
				16,
				17,
				18,
				19,
				20,
				21,
				22,
				23,
				24
			],
			"name":"RootNode",
			"translation":[
				-1.52587890625e-05,
				0,
				0
			]
		},
		{
			"children":[
				25
			],
			"name":"8bd441acc4ee4cdaaf8a71e7ff7f5603.fbx",
			"rotation":[
				0.70710688829422,
				0,
				0,
				0.7071066498756409
			],
			"scale":[
				0.009999999776482582,
				0.010000000707805157,
				0.010000000707805157
			]
		},
		{
			"children":[
				26
			],
			"name":"Sketchfab_model",
			"rotation":[
				-0.70710688829422,
				0,
				0,
				0.7071066498756409
			],
			"translation":[
				-2.248269557952881,
				0,
				-0.6927433013916016
			]
		},
		{
			"name":"Plane.001",
			"rotation":[
				-0.7071069478988647,
				0,
				0,
				0.7071066498756409
			],
			"scale":[
				1540.1064453125,
				1540.106689453125,
				1540.106689453125
			],
			"translation":[
				408.1624755859375,
				-17.486183166503906,
				264.1773681640625
			]
		},
		{
			"children":[
				28
			],
			"name":"RootNode.001",
			"translation":[
				-1.52587890625e-05,
				0,
				0
			]
		},
		{
			"children":[
				29
			],
			"name":"8bd441acc4ee4cdaaf8a71e7ff7f5603.fbx.001",
			"rotation":[
				0.70710688829422,
				0,
				0,
				0.7071066498756409
			],
			"scale":[
				0.009999999776482582,
				0.010000000707805157,
				0.010000000707805157
			]
		},
		{
			"children":[
				30
			],
			"name":"Sketchfab_model.001",
			"rotation":[
				-0.70710688829422,
				0,
				0,
				0.7071066498756409
			],
			"translation":[
				-2.248269557952881,
				0,
				-0.6927433013916016
			]
		},
		{
			"name":"Gate_wall.001",
			"rotation":[
				-0.70710688829422,
				0,
				0,
				0.7071066498756409
			],
			"scale":[
				100,
				100.00001525878906,
				100.00001525878906
			],
			"translation":[
				-1.52587890625e-05,
				0,
				0
			]
		},
		{
			"children":[
				32
			],
			"name":"RootNode.002",
			"translation":[
				-1.52587890625e-05,
				0,
				0
			]
		},
		{
			"children":[
				33
			],
			"name":"8bd441acc4ee4cdaaf8a71e7ff7f5603.fbx.002",
			"rotation":[
				0.70710688829422,
				0,
				0,
				0.7071066498756409
			],
			"scale":[
				0.009999999776482582,
				0.010000000707805157,
				0.010000000707805157
			]
		},
		{
			"children":[
				34
			],
			"name":"Sketchfab_model.002",
			"rotation":[
				-0.70710688829422,
				0,
				0,
				0.7071066498756409
			],
			"translation":[
				-2.248269557952881,
				0,
				-0.6927433013916016
			]
		},
		{
			"name":"Wall.short.001",
			"rotation":[
				-0.70710688829422,
				0,
				0,
				0.7071066498756409
			],
			"scale":[
				100,
				100.00001525878906,
				100.00001525878906
			],
			"translation":[
				729.54638671875,
				0,
				0
			]
		},
		{
			"children":[
				36
			],
			"name":"RootNode.003",
			"translation":[
				-1.52587890625e-05,
				0,
				0
			]
		},
		{
			"children":[
				37
			],
			"name":"8bd441acc4ee4cdaaf8a71e7ff7f5603.fbx.003",
			"rotation":[
				0.70710688829422,
				0,
				0,
				0.7071066498756409
			],
			"scale":[
				0.009999999776482582,
				0.010000000707805157,
				0.010000000707805157
			]
		},
		{
			"children":[
				38
			],
			"name":"Sketchfab_model.003",
			"rotation":[
				-0.70710688829422,
				0,
				0,
				0.7071066498756409
			],
			"translation":[
				-2.248269557952881,
				0,
				-0.6927433013916016
			]
		},
		{
			"name":"Wall.short.002",
			"rotation":[
				-0.70710688829422,
				0,
				0,
				0.7071066498756409
			],
			"scale":[
				100,
				100.00001525878906,
				100.00001525878906
			],
			"translation":[
				729.54638671875,
				0,
				0
			]
		},
		{
			"children":[
				40
			],
			"name":"RootNode.004",
			"translation":[
				-1.52587890625e-05,
				0,
				0
			]
		},
		{
			"children":[
				41
			],
			"name":"8bd441acc4ee4cdaaf8a71e7ff7f5603.fbx.004",
			"rotation":[
				0.70710688829422,
				0,
				0,
				0.7071066498756409
			],
			"scale":[
				0.009999999776482582,
				0.010000000707805157,
				0.010000000707805157
			]
		},
		{
			"children":[
				42
			],
			"name":"Sketchfab_model.004",
			"rotation":[
				-0.70710688829422,
				0,
				0,
				0.7071066498756409
			],
			"translation":[
				-2.248269557952881,
				0,
				-0.6927433013916016
			]
		},
		{
			"name":"Wall.short.003",
			"rotation":[
				-0.70710688829422,
				0,
				0,
				0.7071066498756409
			],
			"scale":[
				100,
				100.00001525878906,
				100.00001525878906
			],
			"translation":[
				729.54638671875,
				0,
				0
			]
		},
		{
			"children":[
				44
			],
			"name":"RootNode.005",
			"translation":[
				-1.52587890625e-05,
				0,
				0
			]
		},
		{
			"children":[
				45
			],
			"name":"8bd441acc4ee4cdaaf8a71e7ff7f5603.fbx.005",
			"rotation":[
				0.70710688829422,
				0,
				0,
				0.7071066498756409
			],
			"scale":[
				0.009999999776482582,
				0.010000000707805157,
				0.010000000707805157
			]
		},
		{
			"children":[
				46
			],
			"name":"Sketchfab_model.005",
			"rotation":[
				-0.70710688829422,
				0,
				0,
				0.7071066498756409
			],
			"translation":[
				-2.248269557952881,
				0,
				-0.6927433013916016
			]
		},
		{
			"name":"Wall.short.004",
			"rotation":[
				-0.70710688829422,
				0,
				0,
				0.7071066498756409
			],
			"scale":[
				100,
				100.00001525878906,
				100.00001525878906
			],
			"translation":[
				729.54638671875,
				0,
				0
			]
		},
		{
			"children":[
				48
			],
			"name":"RootNode.006",
			"translation":[
				-1.52587890625e-05,
				0,
				0
			]
		},
		{
			"children":[
				49
			],
			"name":"8bd441acc4ee4cdaaf8a71e7ff7f5603.fbx.006",
			"rotation":[
				0.70710688829422,
				0,
				0,
				0.7071066498756409
			],
			"scale":[
				0.009999999776482582,
				0.010000000707805157,
				0.010000000707805157
			]
		},
		{
			"children":[
				50
			],
			"name":"Sketchfab_model.006",
			"rotation":[
				-0.70710688829422,
				0,
				0,
				0.7071066498756409
			],
			"translation":[
				-2.248269557952881,
				0,
				-0.6927433013916016
			]
		},
		{
			"mesh":3,
			"name":"Wall.long_Material_0.001",
			"translation":[
				-5.528311729431152,
				6.045997619628906,
				0.05627444386482239
			]
		},
		{
			"children":[
				52
			],
			"name":"Wall.long.001",
			"rotation":[
				-0.70710688829422,
				0,
				0,
				0.7071066498756409
			],
			"scale":[
				100,
				100.00001525878906,
				100.00001525878906
			],
			"translation":[
				1615.4443359375,
				0,
				3.0517578125e-05
			]
		},
		{
			"children":[
				53
			],
			"name":"RootNode.007",
			"translation":[
				-1.52587890625e-05,
				0,
				3.0517578125e-05
			]
		},
		{
			"children":[
				54
			],
			"name":"8bd441acc4ee4cdaaf8a71e7ff7f5603.fbx.007",
			"rotation":[
				0.70710688829422,
				0,
				0,
				0.7071066498756409
			],
			"scale":[
				0.009999999776482582,
				0.010000000707805157,
				0.010000000707805157
			]
		},
		{
			"children":[
				55
			],
			"name":"Sketchfab_model.007",
			"rotation":[
				-0.70710688829422,
				0,
				0,
				0.7071066498756409
			],
			"translation":[
				-2.248269557952881,
				0,
				-4.458311080932617
			]
		},
		{
			"mesh":4,
			"name":"Tower.short_Material_0.001",
			"translation":[
				-4.80427360534668,
				2.0799989700317383,
				0.010000000707805157
			]
		},
		{
			"children":[
				57
			],
			"name":"Tower.short.001",
			"rotation":[
				-0.70710688829422,
				0,
				0,
				0.7071066498756409
			],
			"scale":[
				111.4500503540039,
				111.45006561279297,
				165.39401245117188
			],
			"translation":[
				1357.9818115234375,
				0,
				499.8338623046875
			]
		},
		{
			"children":[
				58
			],
			"name":"RootNode.008"
		},
		{
			"children":[
				59
			],
			"name":"8bd441acc4ee4cdaaf8a71e7ff7f5603.fbx.008",
			"rotation":[
				0.70710688829422,
				0,
				0,
				0.7071066498756409
			],
			"scale":[
				0.009999999776482582,
				0.010000000707805157,
				0.010000000707805157
			]
		},
		{
			"children":[
				60
			],
			"name":"Sketchfab_model.008",
			"rotation":[
				-0.70710688829422,
				0,
				0,
				0.7071066498756409
			],
			"translation":[
				-22.530254364013672,
				0,
				-13.322652816772461
			]
		},
		{
			"mesh":5,
			"name":"Wall.long_Material_0.002",
			"translation":[
				-5.528308868408203,
				5.211175918579102,
				-0.2786940336227417
			]
		},
		{
			"children":[
				62
			],
			"name":"Wall.long.002",
			"rotation":[
				-0.70710688829422,
				0,
				0,
				0.7071066498756409
			],
			"scale":[
				100,
				100.00001525878906,
				100.00001525878906
			],
			"translation":[
				1615.4443359375,
				-3.814697265625e-06,
				0
			]
		},
		{
			"children":[
				63
			],
			"name":"RootNode.009",
			"translation":[
				-0.0001220703125,
				-3.814697265625e-06,
				0
			]
		},
		{
			"children":[
				64
			],
			"name":"8bd441acc4ee4cdaaf8a71e7ff7f5603.fbx.009",
			"rotation":[
				0.70710688829422,
				0,
				0,
				0.7071066498756409
			],
			"scale":[
				0.009999999776482582,
				0.010000000707805157,
				0.010000000707805157
			]
		},
		{
			"children":[
				65
			],
			"name":"Sketchfab_model.009",
			"rotation":[
				-0.70710688829422,
				0,
				0,
				0.7071066498756409
			],
			"translation":[
				-18.915149688720703,
				0.3464624881744385,
				-5.313150405883789
			]
		},
		{
			"mesh":6,
			"name":"Wall.long_Material_0.003",
			"rotation":[
				0,
				0,
				0.7071068286895752,
				0.7071068286895752
			],
			"translation":[
				-11.348308563232422,
				10.44117546081543,
				-0.2786940634250641
			]
		},
		{
			"children":[
				67
			],
			"name":"Wall.long.003",
			"rotation":[
				-0.70710688829422,
				0,
				0,
				0.7071066498756409
			],
			"scale":[
				100,
				100.00001525878906,
				100.00001525878906
			],
			"translation":[
				1615.4443359375,
				-3.814697265625e-06,
				-6.103515625e-05
			]
		},
		{
			"children":[
				68
			],
			"name":"RootNode.010",
			"translation":[
				-0.0001220703125,
				-3.814697265625e-06,
				-6.103515625e-05
			]
		},
		{
			"children":[
				69
			],
			"name":"8bd441acc4ee4cdaaf8a71e7ff7f5603.fbx.010",
			"rotation":[
				0.70710688829422,
				0,
				0,
				0.7071066498756409
			],
			"scale":[
				0.009999999776482582,
				0.010000000707805157,
				0.010000000707805157
			]
		},
		{
			"children":[
				70
			],
			"name":"Sketchfab_model.010",
			"rotation":[
				-0.70710688829422,
				0,
				0,
				0.7071066498756409
			],
			"translation":[
				-18.915149688720703,
				0.3464624881744385,
				5.866216659545898
			]
		},
		{
			"mesh":7,
			"name":"Wall.long_Material_0.004",
			"rotation":[
				0,
				0,
				0.7071068286895752,
				0.7071068286895752
			],
			"translation":[
				-11.348308563232422,
				12.081175804138184,
				-0.2786940336227417
			]
		},
		{
			"children":[
				72
			],
			"name":"Wall.long.004",
			"rotation":[
				-0.70710688829422,
				0,
				0,
				0.7071066498756409
			],
			"scale":[
				100,
				100.00001525878906,
				100.00001525878906
			],
			"translation":[
				1615.4443359375,
				-3.814697265625e-06,
				0
			]
		},
		{
			"children":[
				73
			],
			"name":"RootNode.011",
			"translation":[
				-0.0001220703125,
				-3.814697265625e-06,
				0
			]
		},
		{
			"children":[
				74
			],
			"name":"8bd441acc4ee4cdaaf8a71e7ff7f5603.fbx.011",
			"rotation":[
				0.70710688829422,
				0,
				0,
				0.7071066498756409
			],
			"scale":[
				0.009999999776482582,
				0.010000000707805157,
				0.010000000707805157
			]
		},
		{
			"children":[
				75
			],
			"name":"Sketchfab_model.011",
			"rotation":[
				-0.70710688829422,
				0,
				0,
				0.7071066498756409
			],
			"translation":[
				-18.915149688720703,
				0.3464624881744385,
				15.958719253540039
			]
		},
		{
			"mesh":8,
			"name":"Wall.long_Material_0.005",
			"rotation":[
				0,
				0,
				0.7071068286895752,
				0.7071068286895752
			],
			"translation":[
				-11.348310470581055,
				4.686506271362305,
				-0.2786950469017029
			]
		},
		{
			"children":[
				77
			],
			"name":"Wall.long.005",
			"rotation":[
				-0.70710688829422,
				0,
				0,
				0.7071066498756409
			],
			"scale":[
				100,
				100.00001525878906,
				100.00001525878906
			],
			"translation":[
				1615.4443359375,
				-3.814697265625e-06,
				0
			]
		},
		{
			"children":[
				78
			],
			"name":"RootNode.012",
			"translation":[
				6.103515625e-05,
				-3.814697265625e-06,
				0
			]
		},
		{
			"children":[
				79
			],
			"name":"8bd441acc4ee4cdaaf8a71e7ff7f5603.fbx.012",
			"rotation":[
				0.70710688829422,
				0,
				0,
				0.7071066498756409
			],
			"scale":[
				0.009999999776482582,
				0.010000000707805157,
				0.010000000707805157
			]
		},
		{
			"children":[
				80
			],
			"name":"Sketchfab_model.012",
			"rotation":[
				-0.70710688829422,
				0,
				0,
				0.7071066498756409
			],
			"translation":[
				9.120359420776367,
				0.3464624881744385,
				15.958719253540039
			]
		},
		{
			"mesh":9,
			"name":"Wall.long_Material_0.006",
			"rotation":[
				0,
				0,
				0.7071068286895752,
				0.7071068286895752
			],
			"translation":[
				-11.348310470581055,
				10.44117546081543,
				-0.2786940634250641
			]
		},
		{
			"children":[
				82
			],
			"name":"Wall.long.006",
			"rotation":[
				-0.70710688829422,
				0,
				0,
				0.7071066498756409
			],
			"scale":[
				100,
				100.00001525878906,
				100.00001525878906
			],
			"translation":[
				1615.4443359375,
				-3.814697265625e-06,
				-6.103515625e-05
			]
		},
		{
			"children":[
				83
			],
			"name":"RootNode.013",
			"translation":[
				6.103515625e-05,
				-3.814697265625e-06,
				-6.103515625e-05
			]
		},
		{
			"children":[
				84
			],
			"name":"8bd441acc4ee4cdaaf8a71e7ff7f5603.fbx.013",
			"rotation":[
				0.70710688829422,
				0,
				0,
				0.7071066498756409
			],
			"scale":[
				0.009999999776482582,
				0.010000000707805157,
				0.010000000707805157
			]
		},
		{
			"children":[
				85
			],
			"name":"Sketchfab_model.013",
			"rotation":[
				-0.70710688829422,
				0,
				0,
				0.7071066498756409
			],
			"translation":[
				9.120359420776367,
				0.3464624881744385,
				5.866216659545898
			]
		},
		{
			"mesh":10,
			"name":"Tower.short_Material_0.002",
			"translation":[
				20.91786003112793,
				2.0799989700317383,
				0.010000000707805157
			]
		},
		{
			"children":[
				87
			],
			"name":"Tower.short.002",
			"rotation":[
				-0.70710688829422,
				0,
				0,
				0.7071066498756409
			],
			"scale":[
				111.4500503540039,
				111.45006561279297,
				165.39401245117188
			],
			"translation":[
				1357.9818115234375,
				0,
				499.8338623046875
			]
		},
		{
			"children":[
				88
			],
			"name":"RootNode.014"
		},
		{
			"children":[
				89
			],
			"name":"8bd441acc4ee4cdaaf8a71e7ff7f5603.fbx.014",
			"rotation":[
				0.70710688829422,
				0,
				0,
				0.7071066498756409
			],
			"scale":[
				0.009999999776482582,
				0.010000000707805157,
				0.010000000707805157
			]
		},
		{
			"children":[
				90
			],
			"name":"Sketchfab_model.014",
			"rotation":[
				-0.70710688829422,
				0,
				0,
				0.7071066498756409
			],
			"translation":[
				-22.530254364013672,
				0,
				-13.322652816772461
			]
		},
		{
			"mesh":11,
			"name":"Palace.tower2_Material_0.001",
			"scale":[
				2.299999713897705,
				2.3499996662139893,
				1
			],
			"translation":[
				-0.35270535945892334,
				-5.146109104156494,
				0
			]
		},
		{
			"children":[
				92
			],
			"name":"Palace.tower2.001",
			"rotation":[
				-0.70710688829422,
				0,
				0,
				0.7071066498756409
			],
			"scale":[
				135.5018310546875,
				135.50184631347656,
				135.50184631347656
			],
			"translation":[
				0,
				0,
				499.83380126953125
			]
		},
		{
			"children":[
				93
			],
			"name":"RootNode.015",
			"translation":[
				0,
				0,
				-3.0517578125e-05
			]
		},
		{
			"children":[
				94
			],
			"name":"8bd441acc4ee4cdaaf8a71e7ff7f5603.fbx.015",
			"rotation":[
				0.70710688829422,
				0,
				0,
				0.7071066498756409
			],
			"scale":[
				0.009999999776482582,
				0.010000000707805157,
				0.010000000707805157
			]
		},
		{
			"children":[
				95
			],
			"name":"Sketchfab_model.015",
			"rotation":[
				-0.70710688829422,
				0,
				0,
				0.7071066498756409
			],
			"translation":[
				0.5238950252532959,
				0,
				2.6738338470458984
			]
		},
		{
			"mesh":12,
			"name":"Tower.short_Material_0.003",
			"translation":[
				20.997034072875977,
				-5.134452819824219,
				0.009999348782002926
			]
		},
		{
			"children":[
				97
			],
			"name":"Tower.short.003",
			"rotation":[
				-0.70710688829422,
				0,
				0,
				0.7071066498756409
			],
			"scale":[
				111.4500503540039,
				111.45006561279297,
				165.39401245117188
			],
			"translation":[
				1357.9818115234375,
				0,
				499.83380126953125
			]
		},
		{
			"children":[
				98
			],
			"name":"RootNode.016"
		},
		{
			"children":[
				99
			],
			"name":"8bd441acc4ee4cdaaf8a71e7ff7f5603.fbx.016",
			"rotation":[
				0.70710688829422,
				0,
				0,
				0.7071066498756409
			],
			"scale":[
				0.009999999776482582,
				0.010000000707805157,
				0.010000000707805157
			]
		},
		{
			"children":[
				100
			],
			"name":"Sketchfab_model.016",
			"rotation":[
				-0.70710688829422,
				0,
				0,
				0.7071066498756409
			],
			"translation":[
				-22.530254364013672,
				0,
				5.813016891479492
			]
		},
		{
			"mesh":13,
			"name":"Wall.long_Material_0.007",
			"translation":[
				-5.528308868408203,
				-2.8293371200561523,
				-0.27869513630867004
			]
		},
		{
			"children":[
				102
			],
			"name":"Wall.long.007",
			"rotation":[
				-0.70710688829422,
				0,
				0,
				0.7071066498756409
			],
			"scale":[
				100,
				100.00001525878906,
				100.00001525878906
			],
			"translation":[
				1615.4443359375,
				-3.814697265625e-06,
				0
			]
		},
		{
			"children":[
				103
			],
			"name":"RootNode.017",
			"translation":[
				-0.0001220703125,
				-3.814697265625e-06,
				0
			]
		},
		{
			"children":[
				104
			],
			"name":"8bd441acc4ee4cdaaf8a71e7ff7f5603.fbx.017",
			"rotation":[
				0.70710688829422,
				0,
				0,
				0.7071066498756409
			],
			"scale":[
				0.009999999776482582,
				0.010000000707805157,
				0.010000000707805157
			]
		},
		{
			"children":[
				105
			],
			"name":"Sketchfab_model.017",
			"rotation":[
				-0.70710688829422,
				0,
				0,
				0.7071066498756409
			],
			"translation":[
				-18.915149688720703,
				0.3464624881744385,
				13.822519302368164
			]
		},
		{
			"mesh":14,
			"name":"Tower.short_Material_0.004",
			"translation":[
				-4.80427360534668,
				-5.134452819824219,
				0.009999348782002926
			]
		},
		{
			"children":[
				107
			],
			"name":"Tower.short.004",
			"rotation":[
				-0.70710688829422,
				0,
				0,
				0.7071066498756409
			],
			"scale":[
				111.4500503540039,
				111.45006561279297,
				165.39401245117188
			],
			"translation":[
				1357.9818115234375,
				0,
				499.83380126953125
			]
		},
		{
			"children":[
				108
			],
			"name":"RootNode.018"
		},
		{
			"children":[
				109
			],
			"name":"8bd441acc4ee4cdaaf8a71e7ff7f5603.fbx.018",
			"rotation":[
				0.70710688829422,
				0,
				0,
				0.7071066498756409
			],
			"scale":[
				0.009999999776482582,
				0.010000000707805157,
				0.010000000707805157
			]
		},
		{
			"children":[
				110
			],
			"name":"Sketchfab_model.018",
			"rotation":[
				-0.70710688829422,
				0,
				0,
				0.7071066498756409
			],
			"translation":[
				-22.530254364013672,
				0,
				5.813016891479492
			]
		},
		{
			"mesh":15,
			"name":"Wall.long_Material_0.008",
			"translation":[
				-5.528311729431152,
				-1.9945154190063477,
				0.056273363530635834
			]
		},
		{
			"children":[
				112
			],
			"name":"Wall.long.008",
			"rotation":[
				-0.70710688829422,
				0,
				0,
				0.7071066498756409
			],
			"scale":[
				100,
				100.00001525878906,
				100.00001525878906
			],
			"translation":[
				1615.4443359375,
				0,
				-0.0001220703125
			]
		},
		{
			"children":[
				113
			],
			"name":"RootNode.019",
			"translation":[
				-1.52587890625e-05,
				0,
				-0.0001220703125
			]
		},
		{
			"children":[
				114
			],
			"name":"8bd441acc4ee4cdaaf8a71e7ff7f5603.fbx.019",
			"rotation":[
				0.70710688829422,
				0,
				0,
				0.7071066498756409
			],
			"scale":[
				0.009999999776482582,
				0.010000000707805157,
				0.010000000707805157
			]
		},
		{
			"children":[
				115
			],
			"name":"Sketchfab_model.019",
			"rotation":[
				-0.70710688829422,
				0,
				0,
				0.7071066498756409
			],
			"translation":[
				-2.248269557952881,
				0,
				14.677358627319336
			]
		},
		{
			"name":"Palace.tower1.001",
			"rotation":[
				-0.7034434676170349,
				0.006069306284189224,
				-0.006069297436624765,
				0.7106993794441223
			],
			"scale":[
				135.5018310546875,
				135.50181579589844,
				135.5018310546875
			],
			"translation":[
				-578.372314453125,
				20.18360710144043,
				499.9373779296875
			]
		},
		{
			"children":[
				117
			],
			"name":"RootNode.020",
			"translation":[
				-1.52587890625e-05,
				0,
				0
			]
		},
		{
			"children":[
				118
			],
			"name":"8bd441acc4ee4cdaaf8a71e7ff7f5603.fbx.020",
			"rotation":[
				0.70710688829422,
				0,
				0,
				0.7071066498756409
			],
			"scale":[
				0.009999999776482582,
				0.010000000707805157,
				0.010000000707805157
			]
		},
		{
			"children":[
				119
			],
			"name":"Sketchfab_model.020",
			"rotation":[
				-0.70710688829422,
				0,
				0,
				0.7071066498756409
			],
			"translation":[
				-2.248269557952881,
				0,
				7.860445022583008
			]
		},
		{
			"mesh":16,
			"name":"Wall.long_Material_0.009",
			"rotation":[
				0,
				0,
				0.7071068286895752,
				0.7071068286895752
			],
			"translation":[
				-11.348308563232422,
				12.081174850463867,
				-0.2786940634250641
			]
		},
		{
			"children":[
				121
			],
			"name":"Wall.long.009",
			"rotation":[
				-0.70710688829422,
				0,
				0,
				0.7071066498756409
			],
			"scale":[
				100,
				100.00001525878906,
				100.00001525878906
			],
			"translation":[
				1615.4443359375,
				-3.814697265625e-06,
				-0.000244140625
			]
		},
		{
			"children":[
				122
			],
			"name":"RootNode.021",
			"translation":[
				-0.0001220703125,
				-3.814697265625e-06,
				-0.000244140625
			]
		},
		{
			"children":[
				123
			],
			"name":"8bd441acc4ee4cdaaf8a71e7ff7f5603.fbx.021",
			"rotation":[
				0.70710688829422,
				0,
				0,
				0.7071066498756409
			],
			"scale":[
				0.009999999776482582,
				0.010000000707805157,
				0.010000000707805157
			]
		},
		{
			"children":[
				124
			],
			"name":"Sketchfab_model.021",
			"rotation":[
				-0.70710688829422,
				0,
				0,
				0.7071066498756409
			],
			"translation":[
				-18.915149688720703,
				0.3464624881744385,
				23.35200309753418
			]
		},
		{
			"mesh":17,
			"name":"Wall.long_Material_0.010",
			"rotation":[
				0,
				0,
				0.7071068286895752,
				0.7071068286895752
			],
			"translation":[
				-11.348310470581055,
				12.081175804138184,
				-0.2786940336227417
			]
		},
		{
			"children":[
				126
			],
			"name":"Wall.long.010",
			"rotation":[
				-0.70710688829422,
				0,
				0,
				0.7071066498756409
			],
			"scale":[
				100,
				100.00001525878906,
				100.00001525878906
			],
			"translation":[
				1615.4443359375,
				-3.814697265625e-06,
				0
			]
		},
		{
			"children":[
				127
			],
			"name":"RootNode.022",
			"translation":[
				6.103515625e-05,
				-3.814697265625e-06,
				0
			]
		},
		{
			"children":[
				128
			],
			"name":"8bd441acc4ee4cdaaf8a71e7ff7f5603.fbx.022",
			"rotation":[
				0.70710688829422,
				0,
				0,
				0.7071066498756409
			],
			"scale":[
				0.009999999776482582,
				0.010000000707805157,
				0.010000000707805157
			]
		},
		{
			"children":[
				129
			],
			"name":"Sketchfab_model.022",
			"rotation":[
				-0.70710688829422,
				0,
				0,
				0.7071066498756409
			],
			"translation":[
				9.120359420776367,
				0.3464624881744385,
				15.958719253540039
			]
		}
	],
	"materials":[
		{
			"doubleSided":true,
			"name":"Material.001",
			"pbrMetallicRoughness":{
				"baseColorTexture":{
					"index":0
				},
				"metallicFactor":0,
				"roughnessFactor":0.8976032137870789
			}
		},
		{
			"doubleSided":true,
			"name":"Material.008",
			"pbrMetallicRoughness":{
				"baseColorTexture":{
					"index":1
				},
				"metallicFactor":0,
				"roughnessFactor":0.8976032137870789
			}
		},
		{
			"doubleSided":true,
			"name":"Material.009",
			"pbrMetallicRoughness":{
				"baseColorTexture":{
					"index":2
				},
				"metallicFactor":0,
				"roughnessFactor":0.8976032137870789
			}
		},
		{
			"doubleSided":true,
			"name":"Material.010",
			"pbrMetallicRoughness":{
				"baseColorTexture":{
					"index":3
				},
				"metallicFactor":0,
				"roughnessFactor":0.8976032137870789
			}
		},
		{
			"doubleSided":true,
			"name":"Material.011",
			"pbrMetallicRoughness":{
				"baseColorTexture":{
					"index":4
				},
				"metallicFactor":0,
				"roughnessFactor":0.8976032137870789
			}
		},
		{
			"doubleSided":true,
			"name":"Material.012",
			"pbrMetallicRoughness":{
				"baseColorTexture":{
					"index":5
				},
				"metallicFactor":0,
				"roughnessFactor":0.8976032137870789
			}
		},
		{
			"doubleSided":true,
			"name":"Material.013",
			"pbrMetallicRoughness":{
				"baseColorTexture":{
					"index":6
				},
				"metallicFactor":0,
				"roughnessFactor":0.8976032137870789
			}
		},
		{
			"doubleSided":true,
			"name":"Material.014",
			"pbrMetallicRoughness":{
				"baseColorTexture":{
					"index":7
				},
				"metallicFactor":0,
				"roughnessFactor":0.8976032137870789
			}
		},
		{
			"doubleSided":true,
			"name":"Material.015",
			"pbrMetallicRoughness":{
				"baseColorTexture":{
					"index":8
				},
				"metallicFactor":0,
				"roughnessFactor":0.8976032137870789
			}
		},
		{
			"doubleSided":true,
			"name":"Material.016",
			"pbrMetallicRoughness":{
				"baseColorTexture":{
					"index":9
				},
				"metallicFactor":0,
				"roughnessFactor":0.8976032137870789
			}
		},
		{
			"doubleSided":true,
			"name":"Material.019",
			"pbrMetallicRoughness":{
				"baseColorTexture":{
					"index":10
				},
				"metallicFactor":0,
				"roughnessFactor":0.8976032137870789
			}
		},
		{
			"doubleSided":true,
			"name":"Material.017",
			"pbrMetallicRoughness":{
				"baseColorTexture":{
					"index":11
				},
				"metallicFactor":0,
				"roughnessFactor":0.8976032137870789
			}
		},
		{
			"doubleSided":true,
			"name":"Material.020",
			"pbrMetallicRoughness":{
				"baseColorTexture":{
					"index":12
				},
				"metallicFactor":0,
				"roughnessFactor":0.8976032137870789
			}
		},
		{
			"doubleSided":true,
			"name":"Material.018",
			"pbrMetallicRoughness":{
				"baseColorTexture":{
					"index":13
				},
				"metallicFactor":0,
				"roughnessFactor":0.8976032137870789
			}
		},
		{
			"doubleSided":true,
			"name":"Material.022",
			"pbrMetallicRoughness":{
				"baseColorTexture":{
					"index":14
				},
				"metallicFactor":0,
				"roughnessFactor":0.8976032137870789
			}
		},
		{
			"doubleSided":true,
			"name":"Material.024",
			"pbrMetallicRoughness":{
				"baseColorTexture":{
					"index":15
				},
				"metallicFactor":0,
				"roughnessFactor":0.8976032137870789
			}
		}
	],
	"meshes":[
		{
			"name":"Bridge_Material_0",
			"primitives":[
				{
					"attributes":{
						"POSITION":0,
						"NORMAL":1,
						"TEXCOORD_0":2
					},
					"indices":3,
					"material":0
				}
			]
		},
		{
			"name":"Gate_wall_Material_0",
			"primitives":[
				{
					"attributes":{
						"POSITION":4,
						"NORMAL":5,
						"TEXCOORD_0":6
					},
					"indices":7,
					"material":0
				}
			]
		},
		{
			"name":"Plane_Material_0",
			"primitives":[
				{
					"attributes":{
						"POSITION":8,
						"NORMAL":9,
						"TEXCOORD_0":10
					},
					"indices":11,
					"material":0
				}
			]
		},
		{
			"name":"Wall.long_Material_0.001",
			"primitives":[
				{
					"attributes":{
						"POSITION":12,
						"NORMAL":13,
						"TEXCOORD_0":14
					},
					"indices":15,
					"material":1
				}
			]
		},
		{
			"name":"Tower.short_Material_0.001",
			"primitives":[
				{
					"attributes":{
						"POSITION":16,
						"NORMAL":17,
						"TEXCOORD_0":18
					},
					"indices":19,
					"material":2
				}
			]
		},
		{
			"name":"Wall.long_Material_0.002",
			"primitives":[
				{
					"attributes":{
						"POSITION":20,
						"NORMAL":21,
						"TEXCOORD_0":22
					},
					"indices":15,
					"material":3
				}
			]
		},
		{
			"name":"Wall.long_Material_0.003",
			"primitives":[
				{
					"attributes":{
						"POSITION":23,
						"NORMAL":24,
						"TEXCOORD_0":25
					},
					"indices":15,
					"material":4
				}
			]
		},
		{
			"name":"Wall.long_Material_0.004",
			"primitives":[
				{
					"attributes":{
						"POSITION":26,
						"NORMAL":27,
						"TEXCOORD_0":28
					},
					"indices":15,
					"material":5
				}
			]
		},
		{
			"name":"Wall.long_Material_0.005",
			"primitives":[
				{
					"attributes":{
						"POSITION":29,
						"NORMAL":30,
						"TEXCOORD_0":31
					},
					"indices":15,
					"material":6
				}
			]
		},
		{
			"name":"Wall.long_Material_0.006",
			"primitives":[
				{
					"attributes":{
						"POSITION":32,
						"NORMAL":33,
						"TEXCOORD_0":34
					},
					"indices":15,
					"material":7
				}
			]
		},
		{
			"name":"Tower.short_Material_0.002",
			"primitives":[
				{
					"attributes":{
						"POSITION":35,
						"NORMAL":36,
						"TEXCOORD_0":37
					},
					"indices":19,
					"material":8
				}
			]
		},
		{
			"name":"Palace.tower2_Material_0.001",
			"primitives":[
				{
					"attributes":{
						"POSITION":38,
						"NORMAL":39,
						"TEXCOORD_0":40
					},
					"indices":41,
					"material":9
				}
			]
		},
		{
			"name":"Tower.short_Material_0.003",
			"primitives":[
				{
					"attributes":{
						"POSITION":42,
						"NORMAL":43,
						"TEXCOORD_0":44
					},
					"indices":19,
					"material":10
				}
			]
		},
		{
			"name":"Wall.long_Material_0.007",
			"primitives":[
				{
					"attributes":{
						"POSITION":45,
						"NORMAL":46,
						"TEXCOORD_0":47
					},
					"indices":15,
					"material":11
				}
			]
		},
		{
			"name":"Tower.short_Material_0.004",
			"primitives":[
				{
					"attributes":{
						"POSITION":48,
						"NORMAL":49,
						"TEXCOORD_0":50
					},
					"indices":19,
					"material":12
				}
			]
		},
		{
			"name":"Wall.long_Material_0.008",
			"primitives":[
				{
					"attributes":{
						"POSITION":51,
						"NORMAL":52,
						"TEXCOORD_0":53
					},
					"indices":15,
					"material":13
				}
			]
		},
		{
			"name":"Wall.long_Material_0.009",
			"primitives":[
				{
					"attributes":{
						"POSITION":54,
						"NORMAL":55,
						"TEXCOORD_0":56
					},
					"indices":15,
					"material":14
				}
			]
		},
		{
			"name":"Wall.long_Material_0.011",
			"primitives":[
				{
					"attributes":{
						"POSITION":57,
						"NORMAL":58,
						"TEXCOORD_0":59
					},
					"indices":15,
					"material":15
				}
			]
		}
	],
	"textures":[
		{
			"sampler":0,
			"source":0
		},
		{
			"sampler":0,
			"source":0
		},
		{
			"sampler":0,
			"source":0
		},
		{
			"sampler":0,
			"source":0
		},
		{
			"sampler":0,
			"source":0
		},
		{
			"sampler":0,
			"source":0
		},
		{
			"sampler":0,
			"source":0
		},
		{
			"sampler":0,
			"source":0
		},
		{
			"sampler":0,
			"source":0
		},
		{
			"sampler":0,
			"source":0
		},
		{
			"sampler":0,
			"source":0
		},
		{
			"sampler":0,
			"source":0
		},
		{
			"sampler":0,
			"source":0
		},
		{
			"sampler":0,
			"source":0
		},
		{
			"sampler":0,
			"source":0
		},
		{
			"sampler":0,
			"source":0
		}
	],
	"images":[
		{
			"mimeType":"image/png",
			"name":"Material_baseColor",
			"uri":"Material_baseColor.png"
		}
	],
	"accessors":[
		{
			"bufferView":0,
			"componentType":5126,
			"count":1224,
			"max":[
				1.0987513065338135,
				1.3602696657180786,
				2.370570182800293
			],
			"min":[
				-1.0987513065338135,
				-1.367103099822998,
				-1.7494454383850098
			],
			"type":"VEC3"
		},
		{
			"bufferView":1,
			"componentType":5126,
			"count":1224,
			"type":"VEC3"
		},
		{
			"bufferView":2,
			"componentType":5126,
			"count":1224,
			"type":"VEC2"
		},
		{
			"bufferView":3,
			"componentType":5123,
			"count":2016,
			"type":"SCALAR"
		},
		{
			"bufferView":4,
			"componentType":5126,
			"count":3240,
			"max":[
				3.307607889175415,
				1.8943041563034058,
				4.981323719024658
			],
			"min":[
				-3.307607889175415,
				-1.8943042755126953,
				-0.2854841947555542
			],
			"type":"VEC3"
		},
		{
			"bufferView":5,
			"componentType":5126,
			"count":3240,
			"type":"VEC3"
		},
		{
			"bufferView":6,
			"componentType":5126,
			"count":3240,
			"type":"VEC2"
		},
		{
			"bufferView":7,
			"componentType":5123,
			"count":6165,
			"type":"SCALAR"
		},
		{
			"bufferView":8,
			"componentType":5126,
			"count":4,
			"max":[
				1,
				1.251307487487793,
				0
			],
			"min":[
				-1.3021258115768433,
				-1,
				0
			],
			"type":"VEC3"
		},
		{
			"bufferView":9,
			"componentType":5126,
			"count":4,
			"type":"VEC3"
		},
		{
			"bufferView":10,
			"componentType":5126,
			"count":4,
			"type":"VEC2"
		},
		{
			"bufferView":11,
			"componentType":5123,
			"count":6,
			"type":"SCALAR"
		},
		{
			"bufferView":12,
			"componentType":5126,
			"count":816,
			"max":[
				5.0257110595703125,
				0.8500652313232422,
				3.1749072074890137
			],
			"min":[
				-5.0257110595703125,
				-0.8500649929046631,
				-0.3296894431114197
			],
			"type":"VEC3"
		},
		{
			"bufferView":13,
			"componentType":5126,
			"count":816,
			"type":"VEC3"
		},
		{
			"bufferView":14,
			"componentType":5126,
			"count":816,
			"type":"VEC2"
		},
		{
			"bufferView":15,
			"componentType":5123,
			"count":1650,
			"type":"SCALAR"
		},
		{
			"bufferView":16,
			"componentType":5126,
			"count":528,
			"max":[
				1.1862175464630127,
				1.1862177848815918,
				2.432110548019409
			],
			"min":[
				-1.186218023300171,
				-1.1862177848815918,
				-0.24873414635658264
			],
			"type":"VEC3"
		},
		{
			"bufferView":17,
			"componentType":5126,
			"count":528,
			"type":"VEC3"
		},
		{
			"bufferView":18,
			"componentType":5126,
			"count":528,
			"type":"VEC2"
		},
		{
			"bufferView":19,
			"componentType":5123,
			"count":1578,
			"type":"SCALAR"
		},
		{
			"bufferView":20,
			"componentType":5126,
			"count":816,
			"max":[
				5.0257110595703125,
				0.8500652313232422,
				3.1749072074890137
			],
			"min":[
				-5.0257110595703125,
				-0.8500649929046631,
				-0.3296894431114197
			],
			"type":"VEC3"
		},
		{
			"bufferView":21,
			"componentType":5126,
			"count":816,
			"type":"VEC3"
		},
		{
			"bufferView":22,
			"componentType":5126,
			"count":816,
			"type":"VEC2"
		},
		{
			"bufferView":23,
			"componentType":5126,
			"count":816,
			"max":[
				5.0257110595703125,
				0.8500652313232422,
				3.1749072074890137
			],
			"min":[
				-5.0257110595703125,
				-0.8500649929046631,
				-0.3296894431114197
			],
			"type":"VEC3"
		},
		{
			"bufferView":24,
			"componentType":5126,
			"count":816,
			"type":"VEC3"
		},
		{
			"bufferView":25,
			"componentType":5126,
			"count":816,
			"type":"VEC2"
		},
		{
			"bufferView":26,
			"componentType":5126,
			"count":816,
			"max":[
				5.0257110595703125,
				0.8500652313232422,
				3.1749072074890137
			],
			"min":[
				-5.0257110595703125,
				-0.8500649929046631,
				-0.3296894431114197
			],
			"type":"VEC3"
		},
		{
			"bufferView":27,
			"componentType":5126,
			"count":816,
			"type":"VEC3"
		},
		{
			"bufferView":28,
			"componentType":5126,
			"count":816,
			"type":"VEC2"
		},
		{
			"bufferView":29,
			"componentType":5126,
			"count":816,
			"max":[
				5.0257110595703125,
				0.8500652313232422,
				3.1749072074890137
			],
			"min":[
				-5.0257110595703125,
				-0.8500649929046631,
				-0.3296894431114197
			],
			"type":"VEC3"
		},
		{
			"bufferView":30,
			"componentType":5126,
			"count":816,
			"type":"VEC3"
		},
		{
			"bufferView":31,
			"componentType":5126,
			"count":816,
			"type":"VEC2"
		},
		{
			"bufferView":32,
			"componentType":5126,
			"count":816,
			"max":[
				5.0257110595703125,
				0.8500652313232422,
				3.1749072074890137
			],
			"min":[
				-5.0257110595703125,
				-0.8500649929046631,
				-0.3296894431114197
			],
			"type":"VEC3"
		},
		{
			"bufferView":33,
			"componentType":5126,
			"count":816,
			"type":"VEC3"
		},
		{
			"bufferView":34,
			"componentType":5126,
			"count":816,
			"type":"VEC2"
		},
		{
			"bufferView":35,
			"componentType":5126,
			"count":528,
			"max":[
				1.1862175464630127,
				1.1862177848815918,
				2.432110548019409
			],
			"min":[
				-1.186218023300171,
				-1.1862177848815918,
				-0.24873414635658264
			],
			"type":"VEC3"
		},
		{
			"bufferView":36,
			"componentType":5126,
			"count":528,
			"type":"VEC3"
		},
		{
			"bufferView":37,
			"componentType":5126,
			"count":528,
			"type":"VEC2"
		},
		{
			"bufferView":38,
			"componentType":5126,
			"count":2378,
			"max":[
				1.4712275266647339,
				1.4712275266647339,
				6.010472297668457
			],
			"min":[
				-1.4712275266647339,
				-1.4712275266647339,
				0
			],
			"type":"VEC3"
		},
		{
			"bufferView":39,
			"componentType":5126,
			"count":2378,
			"type":"VEC3"
		},
		{
			"bufferView":40,
			"componentType":5126,
			"count":2378,
			"type":"VEC2"
		},
		{
			"bufferView":41,
			"componentType":5123,
			"count":4056,
			"type":"SCALAR"
		},
		{
			"bufferView":42,
			"componentType":5126,
			"count":528,
			"max":[
				1.1862175464630127,
				1.1862177848815918,
				2.432110548019409
			],
			"min":[
				-1.186218023300171,
				-1.1862177848815918,
				-0.24873414635658264
			],
			"type":"VEC3"
		},
		{
			"bufferView":43,
			"componentType":5126,
			"count":528,
			"type":"VEC3"
		},
		{
			"bufferView":44,
			"componentType":5126,
			"count":528,
			"type":"VEC2"
		},
		{
			"bufferView":45,
			"componentType":5126,
			"count":816,
			"max":[
				5.0257110595703125,
				0.8500652313232422,
				3.1749072074890137
			],
			"min":[
				-5.0257110595703125,
				-0.8500649929046631,
				-0.3296894431114197
			],
			"type":"VEC3"
		},
		{
			"bufferView":46,
			"componentType":5126,
			"count":816,
			"type":"VEC3"
		},
		{
			"bufferView":47,
			"componentType":5126,
			"count":816,
			"type":"VEC2"
		},
		{
			"bufferView":48,
			"componentType":5126,
			"count":528,
			"max":[
				1.1862175464630127,
				1.1862177848815918,
				2.432110548019409
			],
			"min":[
				-1.186218023300171,
				-1.1862177848815918,
				-0.24873414635658264
			],
			"type":"VEC3"
		},
		{
			"bufferView":49,
			"componentType":5126,
			"count":528,
			"type":"VEC3"
		},
		{
			"bufferView":50,
			"componentType":5126,
			"count":528,
			"type":"VEC2"
		},
		{
			"bufferView":51,
			"componentType":5126,
			"count":816,
			"max":[
				5.0257110595703125,
				0.8500652313232422,
				3.1749072074890137
			],
			"min":[
				-5.0257110595703125,
				-0.8500649929046631,
				-0.3296894431114197
			],
			"type":"VEC3"
		},
		{
			"bufferView":52,
			"componentType":5126,
			"count":816,
			"type":"VEC3"
		},
		{
			"bufferView":53,
			"componentType":5126,
			"count":816,
			"type":"VEC2"
		},
		{
			"bufferView":54,
			"componentType":5126,
			"count":816,
			"max":[
				5.0257110595703125,
				0.8500652313232422,
				3.1749072074890137
			],
			"min":[
				-5.0257110595703125,
				-0.8500649929046631,
				-0.3296894431114197
			],
			"type":"VEC3"
		},
		{
			"bufferView":55,
			"componentType":5126,
			"count":816,
			"type":"VEC3"
		},
		{
			"bufferView":56,
			"componentType":5126,
			"count":816,
			"type":"VEC2"
		},
		{
			"bufferView":57,
			"componentType":5126,
			"count":816,
			"max":[
				5.0257110595703125,
				0.8500652313232422,
				3.1749072074890137
			],
			"min":[
				-5.0257110595703125,
				-0.8500649929046631,
				-0.3296894431114197
			],
			"type":"VEC3"
		},
		{
			"bufferView":58,
			"componentType":5126,
			"count":816,
			"type":"VEC3"
		},
		{
			"bufferView":59,
			"componentType":5126,
			"count":816,
			"type":"VEC2"
		}
	],
	"bufferViews":[
		{
			"buffer":0,
			"byteLength":14688,
			"byteOffset":0,
			"target":34962
		},
		{
			"buffer":0,
			"byteLength":14688,
			"byteOffset":14688,
			"target":34962
		},
		{
			"buffer":0,
			"byteLength":9792,
			"byteOffset":29376,
			"target":34962
		},
		{
			"buffer":0,
			"byteLength":4032,
			"byteOffset":39168,
			"target":34963
		},
		{
			"buffer":0,
			"byteLength":38880,
			"byteOffset":43200,
			"target":34962
		},
		{
			"buffer":0,
			"byteLength":38880,
			"byteOffset":82080,
			"target":34962
		},
		{
			"buffer":0,
			"byteLength":25920,
			"byteOffset":120960,
			"target":34962
		},
		{
			"buffer":0,
			"byteLength":12330,
			"byteOffset":146880,
			"target":34963
		},
		{
			"buffer":0,
			"byteLength":48,
			"byteOffset":159212,
			"target":34962
		},
		{
			"buffer":0,
			"byteLength":48,
			"byteOffset":159260,
			"target":34962
		},
		{
			"buffer":0,
			"byteLength":32,
			"byteOffset":159308,
			"target":34962
		},
		{
			"buffer":0,
			"byteLength":12,
			"byteOffset":159340,
			"target":34963
		},
		{
			"buffer":0,
			"byteLength":9792,
			"byteOffset":159352,
			"target":34962
		},
		{
			"buffer":0,
			"byteLength":9792,
			"byteOffset":169144,
			"target":34962
		},
		{
			"buffer":0,
			"byteLength":6528,
			"byteOffset":178936,
			"target":34962
		},
		{
			"buffer":0,
			"byteLength":3300,
			"byteOffset":185464,
			"target":34963
		},
		{
			"buffer":0,
			"byteLength":6336,
			"byteOffset":188764,
			"target":34962
		},
		{
			"buffer":0,
			"byteLength":6336,
			"byteOffset":195100,
			"target":34962
		},
		{
			"buffer":0,
			"byteLength":4224,
			"byteOffset":201436,
			"target":34962
		},
		{
			"buffer":0,
			"byteLength":3156,
			"byteOffset":205660,
			"target":34963
		},
		{
			"buffer":0,
			"byteLength":9792,
			"byteOffset":208816,
			"target":34962
		},
		{
			"buffer":0,
			"byteLength":9792,
			"byteOffset":218608,
			"target":34962
		},
		{
			"buffer":0,
			"byteLength":6528,
			"byteOffset":228400,
			"target":34962
		},
		{
			"buffer":0,
			"byteLength":9792,
			"byteOffset":234928,
			"target":34962
		},
		{
			"buffer":0,
			"byteLength":9792,
			"byteOffset":244720,
			"target":34962
		},
		{
			"buffer":0,
			"byteLength":6528,
			"byteOffset":254512,
			"target":34962
		},
		{
			"buffer":0,
			"byteLength":9792,
			"byteOffset":261040,
			"target":34962
		},
		{
			"buffer":0,
			"byteLength":9792,
			"byteOffset":270832,
			"target":34962
		},
		{
			"buffer":0,
			"byteLength":6528,
			"byteOffset":280624,
			"target":34962
		},
		{
			"buffer":0,
			"byteLength":9792,
			"byteOffset":287152,
			"target":34962
		},
		{
			"buffer":0,
			"byteLength":9792,
			"byteOffset":296944,
			"target":34962
		},
		{
			"buffer":0,
			"byteLength":6528,
			"byteOffset":306736,
			"target":34962
		},
		{
			"buffer":0,
			"byteLength":9792,
			"byteOffset":313264,
			"target":34962
		},
		{
			"buffer":0,
			"byteLength":9792,
			"byteOffset":323056,
			"target":34962
		},
		{
			"buffer":0,
			"byteLength":6528,
			"byteOffset":332848,
			"target":34962
		},
		{
			"buffer":0,
			"byteLength":6336,
			"byteOffset":339376,
			"target":34962
		},
		{
			"buffer":0,
			"byteLength":6336,
			"byteOffset":345712,
			"target":34962
		},
		{
			"buffer":0,
			"byteLength":4224,
			"byteOffset":352048,
			"target":34962
		},
		{
			"buffer":0,
			"byteLength":28536,
			"byteOffset":356272,
			"target":34962
		},
		{
			"buffer":0,
			"byteLength":28536,
			"byteOffset":384808,
			"target":34962
		},
		{
			"buffer":0,
			"byteLength":19024,
			"byteOffset":413344,
			"target":34962
		},
		{
			"buffer":0,
			"byteLength":8112,
			"byteOffset":432368,
			"target":34963
		},
		{
			"buffer":0,
			"byteLength":6336,
			"byteOffset":440480,
			"target":34962
		},
		{
			"buffer":0,
			"byteLength":6336,
			"byteOffset":446816,
			"target":34962
		},
		{
			"buffer":0,
			"byteLength":4224,
			"byteOffset":453152,
			"target":34962
		},
		{
			"buffer":0,
			"byteLength":9792,
			"byteOffset":457376,
			"target":34962
		},
		{
			"buffer":0,
			"byteLength":9792,
			"byteOffset":467168,
			"target":34962
		},
		{
			"buffer":0,
			"byteLength":6528,
			"byteOffset":476960,
			"target":34962
		},
		{
			"buffer":0,
			"byteLength":6336,
			"byteOffset":483488,
			"target":34962
		},
		{
			"buffer":0,
			"byteLength":6336,
			"byteOffset":489824,
			"target":34962
		},
		{
			"buffer":0,
			"byteLength":4224,
			"byteOffset":496160,
			"target":34962
		},
		{
			"buffer":0,
			"byteLength":9792,
			"byteOffset":500384,
			"target":34962
		},
		{
			"buffer":0,
			"byteLength":9792,
			"byteOffset":510176,
			"target":34962
		},
		{
			"buffer":0,
			"byteLength":6528,
			"byteOffset":519968,
			"target":34962
		},
		{
			"buffer":0,
			"byteLength":9792,
			"byteOffset":526496,
			"target":34962
		},
		{
			"buffer":0,
			"byteLength":9792,
			"byteOffset":536288,
			"target":34962
		},
		{
			"buffer":0,
			"byteLength":6528,
			"byteOffset":546080,
			"target":34962
		},
		{
			"buffer":0,
			"byteLength":9792,
			"byteOffset":552608,
			"target":34962
		},
		{
			"buffer":0,
			"byteLength":9792,
			"byteOffset":562400,
			"target":34962
		},
		{
			"buffer":0,
			"byteLength":6528,
			"byteOffset":572192,
			"target":34962
		}
	],
	"samplers":[
		{
			"magFilter":9728,
			"minFilter":9984
		}
	],
	"buffers":[
		{
			"byteLength":578720,
			"uri":"castle_wall.bin"
		}
	]
}
